<svg version="1.1" id="Layer_1" xmlns="http://www.w3.org/2000/svg" xmlns:xlink="http://www.w3.org/1999/xlink" 
	 viewBox="0 0 400 143" style="enable-background:new 0 0 400 143;" xml:space="preserve">
<g>
	<path d="M29.915,5.348H17.277v32.494h-4.639V5.348H0V1.22h29.915V5.348z"/>
	<path d="M57.82,37.842h-4.538V22.781c0-2.785-0.484-4.856-1.446-6.216c-0.962-1.357-2.372-2.037-4.231-2.037
		c-0.892,0-1.788,0.181-2.68,0.541c-0.897,0.36-1.728,0.851-2.503,1.471c-0.771,0.62-1.461,1.357-2.06,2.216
		c-0.604,0.861-1.058,1.806-1.37,2.838v16.247h-4.538V0.19h4.538v16.504c1.068-1.959,2.508-3.488,4.332-4.591
		c1.823-1.098,3.818-1.65,5.984-1.65c1.582,0,2.921,0.292,4.025,0.876c1.098,0.587,1.975,1.378,2.629,2.372
		c0.655,1,1.128,2.194,1.42,3.586s0.438,2.879,0.438,4.46V37.842z"/>
	<path d="M76.799,38.358c-2.025,0-3.884-0.37-5.566-1.111c-1.687-0.738-3.133-1.743-4.337-3.017
		c-1.204-1.272-2.141-2.758-2.811-4.46c-0.67-1.703-1.002-3.498-1.002-5.39c0-1.891,0.332-3.68,1.002-5.364
		c0.67-1.685,1.617-3.163,2.841-4.435c1.219-1.272,2.67-2.279,4.357-3.02c1.682-0.738,3.541-1.108,5.571-1.108
		c2.025,0,3.873,0.38,5.546,1.136c1.667,0.756,3.083,1.763,4.251,3.017c1.169,1.254,2.075,2.715,2.71,4.385
		c0.635,1.667,0.952,3.395,0.952,5.183c0,0.378-0.005,0.723-0.025,1.03c-0.015,0.31-0.04,0.552-0.076,0.723H67.879
		c0.101,1.342,0.413,2.561,0.927,3.662c0.519,1.101,1.189,2.048,2.015,2.838c0.821,0.791,1.758,1.41,2.811,1.856
		c1.048,0.446,2.156,0.67,3.324,0.67c0.826,0,1.632-0.111,2.423-0.335c0.791-0.224,1.531-0.524,2.221-0.902
		c0.685-0.378,1.295-0.844,1.828-1.393c0.534-0.552,0.937-1.169,1.214-1.859l3.919,1.083c-0.448,1-1.058,1.909-1.828,2.735
		c-0.776,0.826-1.672,1.539-2.685,2.141s-2.141,1.075-3.38,1.418C79.433,38.184,78.144,38.358,76.799,38.358z M86.032,22.574
		c-0.101-1.272-0.418-2.45-0.952-3.533c-0.534-1.083-1.204-2.002-2.01-2.76c-0.811-0.756-1.748-1.347-2.811-1.778
		c-1.068-0.431-2.201-0.645-3.405-0.645s-2.342,0.214-3.405,0.645c-1.068,0.431-2.005,1.03-2.811,1.806
		c-0.811,0.773-1.461,1.692-1.959,2.758c-0.499,1.068-0.801,2.236-0.907,3.508H86.032z"/>
	<path d="M36.07,120.859c-5.097,0-9.721-0.997-13.867-2.989c-4.15-1.992-7.712-4.639-10.683-7.938
		c-2.972-3.299-5.274-7.072-6.906-11.318c-1.637-4.246-2.453-8.591-2.453-13.036c0-4.637,0.866-9.079,2.599-13.328
		c1.728-4.246,4.115-8.001,7.153-11.27c3.037-3.266,6.649-5.863,10.83-7.79c4.181-1.927,8.719-2.891,13.62-2.891
		c5.032,0,9.621,1.028,13.771,3.088c4.145,2.058,7.691,4.752,10.633,8.084c2.942,3.332,5.223,7.122,6.86,11.368
		c1.632,4.246,2.448,8.558,2.448,12.935c0,4.639-0.851,9.064-2.549,13.28c-1.697,4.213-4.05,7.938-7.057,11.172
		c-3.002,3.234-6.598,5.815-10.779,7.742C45.509,119.894,40.971,120.859,36.07,120.859z M15.882,85.577
		c0,3.007,0.458,5.913,1.37,8.722c0.917,2.811,2.241,5.294,3.969,7.45c1.733,2.156,3.853,3.886,6.372,5.193
		c2.513,1.307,5.374,1.959,8.573,1.959c3.269,0,6.16-0.667,8.674-2.007c2.513-1.34,4.639-3.12,6.372-5.342
		c1.728-2.221,3.037-4.72,3.919-7.498c0.881-2.775,1.325-5.601,1.325-8.477c0-3.005-0.473-5.911-1.42-8.722
		c-0.952-2.808-2.292-5.291-4.02-7.447c-1.733-2.156-3.858-3.871-6.372-5.145c-2.513-1.274-5.339-1.912-8.477-1.912
		c-3.264,0-6.17,0.67-8.719,2.01c-2.549,1.34-4.674,3.103-6.372,5.291c-1.697,2.189-2.987,4.672-3.868,7.447
		C16.325,79.878,15.882,82.704,15.882,85.577z"/>
	<path d="M107.318,80.384c-3.984,0.065-7.545,0.834-10.683,2.302c-3.133,1.471-5.39,3.677-6.76,6.616v31.066H76.744V69.016h12.054
		v10.976c0.912-1.763,1.99-3.347,3.234-4.752c1.239-1.405,2.579-2.629,4.02-3.674c1.436-1.045,2.891-1.846,4.357-2.403
		c1.471-0.554,2.891-0.831,4.266-0.831c0.715,0,1.254,0,1.617,0c0.358,0,0.7,0.033,1.028,0.098V80.384z"/>
	<path d="M130.932,121.347c-3.531,0-6.795-0.685-9.802-2.058c-3.007-1.373-5.586-3.266-7.742-5.684
		c-2.156-2.415-3.838-5.244-5.047-8.477s-1.813-6.712-1.813-10.437s0.574-7.185,1.718-10.389c1.138-3.198,2.725-6.009,4.75-8.427
		c2.025-2.415,4.443-4.312,7.253-5.684c2.811-1.373,5.878-2.058,9.213-2.058c3.788,0,7.203,0.914,10.24,2.743
		c3.037,1.831,5.405,4.216,7.107,7.155V48.827h13.131v56.45c0,1.37,0.227,2.35,0.685,2.939c0.458,0.587,1.239,0.914,2.352,0.98
		v11.172c-2.287,0.456-4.15,0.685-5.586,0.685c-2.352,0-4.281-0.587-5.782-1.763c-1.506-1.176-2.352-2.71-2.549-4.606l-0.292-3.234
		c-1.899,3.266-4.458,5.732-7.697,7.399C137.837,120.514,134.457,121.347,130.932,121.347z M134.362,110.175
		c1.239,0,2.513-0.212,3.823-0.637c1.305-0.423,2.513-1.028,3.622-1.813c1.113-0.783,2.111-1.697,2.992-2.743
		c0.881-1.045,1.551-2.189,2.01-3.43v-12.25c-0.524-1.436-1.259-2.76-2.206-3.969c-0.947-1.209-2.025-2.254-3.234-3.136
		c-1.209-0.881-2.483-1.584-3.823-2.108c-1.34-0.521-2.665-0.783-3.969-0.783c-1.959,0-3.773,0.426-5.44,1.274
		c-1.662,0.849-3.088,2.007-4.261,3.478c-1.179,1.471-2.09,3.153-2.745,5.047c-0.655,1.896-0.977,3.856-0.977,5.881
		c0,2.156,0.358,4.148,1.078,5.976c0.715,1.831,1.697,3.43,2.937,4.803c1.244,1.373,2.73,2.451,4.463,3.234
		C130.357,109.785,132.266,110.175,134.362,110.175z"/>
	<path d="M170.427,61.863V48.827h13.131v13.036H170.427z M170.427,120.368V69.016h13.131v51.352H170.427z"/>
	<path d="M240.688,120.368h-13.131V91.556c0-4.115-0.72-7.12-2.156-9.016c-1.441-1.894-3.43-2.841-5.979-2.841
		c-1.31,0-2.644,0.259-4.02,0.783c-1.37,0.524-2.66,1.259-3.868,2.204c-1.209,0.949-2.302,2.075-3.284,3.382
		s-1.697,2.743-2.156,4.312v29.988h-13.131V69.016h11.857v9.507c1.894-3.266,4.639-5.815,8.23-7.646
		c3.591-1.828,7.646-2.743,12.154-2.743c3.198,0,5.813,0.587,7.838,1.763c2.025,1.176,3.596,2.712,4.705,4.606
		c1.113,1.896,1.879,4.052,2.302,6.467c0.428,2.418,0.64,4.868,0.64,7.351V120.368z"/>
	<path d="M263.717,121.347c-2.483,0-4.8-0.408-6.956-1.224c-2.156-0.816-4.02-1.962-5.586-3.43
		c-1.572-1.471-2.796-3.186-3.677-5.145c-0.881-1.959-1.325-4.115-1.325-6.467c0-2.418,0.539-4.657,1.617-6.714
		c1.078-2.058,2.584-3.805,4.508-5.244c1.929-1.436,4.231-2.561,6.911-3.38c2.68-0.816,5.616-1.224,8.82-1.224
		c2.287,0,4.523,0.194,6.714,0.587c2.186,0.393,4.13,0.947,5.828,1.667v-2.942c0-3.395-0.962-6.009-2.886-7.84
		c-1.929-1.828-4.79-2.743-8.578-2.743c-2.745,0-5.425,0.489-8.034,1.468c-2.614,0.982-5.294,2.418-8.039,4.314l-4.014-8.331
		c6.598-4.377,13.716-6.566,21.362-6.566c7.384,0,13.116,1.813,17.201,5.44c4.08,3.624,6.125,8.868,6.125,15.728v15.975
		c0,1.37,0.242,2.35,0.73,2.939c0.494,0.587,1.289,0.914,2.403,0.98v11.172c-2.221,0.456-4.15,0.685-5.782,0.685
		c-2.483,0-4.392-0.554-5.732-1.665c-1.34-1.111-2.171-2.581-2.498-4.41l-0.292-2.843c-2.292,3.007-5.067,5.294-8.331,6.86
		C270.935,120.564,267.439,121.347,263.717,121.347z M267.439,111.744c2.221,0,4.327-0.393,6.321-1.176s3.546-1.828,4.654-3.136
		c1.441-1.111,2.156-2.352,2.156-3.725v-5.881c-1.567-0.587-3.264-1.06-5.092-1.42c-1.833-0.358-3.596-0.539-5.294-0.539
		c-3.395,0-6.175,0.768-8.331,2.302c-2.156,1.536-3.234,3.481-3.234,5.833c0,2.221,0.851,4.067,2.549,5.536
		C262.866,111.009,264.956,111.744,267.439,111.744z"/>
	<path d="M334.084,80.384c-3.984,0.065-7.545,0.834-10.683,2.302c-3.133,1.471-5.39,3.677-6.76,6.616v31.066h-13.131V69.016h12.054
		v10.976c0.912-1.763,1.99-3.347,3.234-4.752c1.239-1.405,2.579-2.629,4.02-3.674c1.436-1.045,2.891-1.846,4.357-2.403
		c1.471-0.554,2.891-0.831,4.266-0.831c0.715,0,1.254,0,1.617,0c0.358,0,0.7,0.033,1.028,0.098V80.384z"/>
	<path d="M341.39,130.364c1.108,0.327,2.186,0.572,3.234,0.735c1.043,0.161,1.924,0.244,2.644,0.244
		c0.851,0,1.632-0.164,2.352-0.489c0.72-0.33,1.375-0.899,1.959-1.715c0.589-0.819,1.179-1.947,1.763-3.382
		c0.589-1.438,1.209-3.234,1.864-5.39l-20.284-51.352h13.524l13.912,39.984l12.351-39.984h12.346l-21.558,61.544
		c-1.244,3.591-3.365,6.533-6.372,8.82c-3.002,2.287-6.729,3.43-11.172,3.43c-1.043,0-2.105-0.083-3.183-0.244
		c-1.078-0.164-2.206-0.443-3.38-0.834V130.364z"/>
	<path d="M389.216,120.368v-14.111H400v14.111H389.216z"/>
</g>
</svg>
